<?xml version="1.0" encoding="UTF-8" standalone="no"?>
<svg
   xmlns:dc="http://purl.org/dc/elements/1.1/"
   xmlns:cc="http://creativecommons.org/ns#"
   xmlns:rdf="http://www.w3.org/1999/02/22-rdf-syntax-ns#"
   xmlns:svg="http://www.w3.org/2000/svg"
   xmlns="http://www.w3.org/2000/svg"
   xmlns:sodipodi="http://sodipodi.sourceforge.net/DTD/sodipodi-0.dtd"
   xmlns:inkscape="http://www.inkscape.org/namespaces/inkscape"
   version="1.1"
   id="Capa_1"
   x="0px"
   y="0px"
   viewBox="0 0 512 512"
   style="enable-background:new 0 0 512 512;"
   xml:space="preserve"
   sodipodi:docname="dices.svg"
   inkscape:version="1.0.2 (e86c870879, 2021-01-15)"><metadata
   id="metadata61"><rdf:RDF><cc:Work
       rdf:about=""><dc:format>image/svg+xml</dc:format><dc:type
         rdf:resource="http://purl.org/dc/dcmitype/StillImage" /></cc:Work></rdf:RDF></metadata><defs
   id="defs59" /><sodipodi:namedview
   pagecolor="#ffffff"
   bordercolor="#666666"
   borderopacity="1"
   objecttolerance="10"
   gridtolerance="10"
   guidetolerance="10"
   inkscape:pageopacity="0"
   inkscape:pageshadow="2"
   inkscape:window-width="1366"
   inkscape:window-height="731"
   id="namedview57"
   showgrid="false"
   inkscape:zoom="0.68086649"
   inkscape:cx="246.32101"
   inkscape:cy="261.37721"
   inkscape:window-x="0"
   inkscape:window-y="0"
   inkscape:window-maximized="1"
   inkscape:current-layer="Capa_1" />
<path
   style="fill:#0784b5;fill-opacity:1"
   d="M302.4,43.109L145.472,1.061c-16.488-4.418-33.435,5.367-37.853,21.854L65.57,179.843  c-4.418,16.488,5.367,33.435,21.854,37.853l156.928,42.048c16.488,4.418,33.435-5.367,37.853-21.854l42.049-156.928  C328.673,64.475,318.888,47.528,302.4,43.109z"
   id="path2" />
<path
   style="fill:#0784b5;fill-opacity:1"
   d="M316.254,51.112c-10.304,2.771-18.893,10.803-21.852,21.851L261.019,197.55  c-4.786,17.862-23.146,28.462-41.008,23.676L95.424,187.843c-11.052-2.963-22.298,0.462-29.85,7.999  c2.772,10.304,10.802,18.895,21.851,21.854l156.928,42.048c16.488,4.418,33.435-5.367,37.853-21.854l42.049-156.928  C327.216,69.914,323.791,58.664,316.254,51.112z"
   id="path4" />
<path
   style="fill:#0784b5;fill-opacity:1"
   d="M446.43,431.037l-42.048-156.928c-4.418-16.488-21.366-26.272-37.853-21.854l-156.928,42.048  c-16.488,4.418-26.272,21.365-21.854,37.853l42.049,156.928c4.418,16.488,21.365,26.272,37.853,21.854l156.928-42.049  C441.062,464.473,450.848,447.525,446.43,431.037z"
   id="path6" />
<path
   style="fill:#0784b5;fill-opacity:1"
   d="M404.381,274.109c-2.961-11.048-11.55-19.078-21.854-21.85c-7.537,7.553-10.961,18.802-8,29.85  l33.383,124.586c4.786,17.862-5.814,36.221-23.676,41.008l-124.587,33.384c-11.048,2.96-19.078,11.549-21.85,21.853  c7.553,7.537,18.802,10.961,29.85,8.001l156.928-42.049c16.488-4.418,26.272-21.365,21.854-37.853L404.381,274.109z"
   id="path8" />
<g
   id="g24">
	<ellipse
   style="fill:#FFF9EB;"
   cx="349.852"
   cy="324.814"
   id="ellipse10"
   ry="23.18"
   rx="23.18" />
	<ellipse
   style="fill:#FFF9EB;"
   cx="284.286"
   cy="438.368"
   id="ellipse12"
   ry="23.18"
   rx="23.18" />
	<circle
   style="fill:#FFF9EB;"
   cx="317.087"
   cy="381.6"
   r="23.18"
   id="circle14" />
	<ellipse
   style="fill:#FFF9EB;"
   cx="162.123"
   cy="73.631"
   id="ellipse16"
   ry="23.18"
   rx="23.18" />
	<ellipse
   style="fill:#FFF9EB;"
   cx="251.693"
   cy="97.62"
   id="ellipse18"
   ry="23.18"
   rx="23.18" />
	<ellipse
   style="fill:#FFF9EB;"
   cx="138.13"
   cy="163.185"
   id="ellipse20"
   ry="23.18"
   rx="23.18" />
	<ellipse
   style="fill:#FFF9EB;"
   cx="227.685"
   cy="187.192"
   id="ellipse22"
   ry="23.18"
   rx="23.18" />
</g>
<g
   id="g26"
   style="fill:#0784b5;fill-opacity:1">
</g>
<g
   id="g28"
   style="fill:#0784b5;fill-opacity:1">
</g>
<g
   id="g30"
   style="fill:#0784b5;fill-opacity:1">
</g>
<g
   id="g32"
   style="fill:#0784b5;fill-opacity:1">
</g>
<g
   id="g34"
   style="fill:#0784b5;fill-opacity:1">
</g>
<g
   id="g36"
   style="fill:#0784b5;fill-opacity:1">
</g>
<g
   id="g38"
   style="fill:#0784b5;fill-opacity:1">
</g>
<g
   id="g40"
   style="fill:#0784b5;fill-opacity:1">
</g>
<g
   id="g42"
   style="fill:#0784b5;fill-opacity:1">
</g>
<g
   id="g44"
   style="fill:#0784b5;fill-opacity:1">
</g>
<g
   id="g46"
   style="fill:#0784b5;fill-opacity:1">
</g>
<g
   id="g48"
   style="fill:#0784b5;fill-opacity:1">
</g>
<g
   id="g50"
   style="fill:#0784b5;fill-opacity:1">
</g>
<g
   id="g52"
   style="fill:#0784b5;fill-opacity:1">
</g>
<g
   id="g54"
   style="fill:#0784b5;fill-opacity:1">
</g>
</svg>
