<?xml version="1.0" encoding="UTF-8" standalone="no"?>
<svg
   xmlns:dc="http://purl.org/dc/elements/1.1/"
   xmlns:cc="http://creativecommons.org/ns#"
   xmlns:rdf="http://www.w3.org/1999/02/22-rdf-syntax-ns#"
   xmlns:svg="http://www.w3.org/2000/svg"
   xmlns="http://www.w3.org/2000/svg"
   xmlns:sodipodi="http://sodipodi.sourceforge.net/DTD/sodipodi-0.dtd"
   xmlns:inkscape="http://www.inkscape.org/namespaces/inkscape"
   sodipodi:docname="favicon.svg"
   inkscape:version="1.0.2 (e86c870879, 2021-01-15)"
   id="svg14600"
   version="1.1"
   viewBox="0 0 8.4666665 8.4666669"
   height="32"
   width="32">
  <defs
     id="defs14594" />
  <sodipodi:namedview
     inkscape:window-maximized="1"
     inkscape:window-y="0"
     inkscape:window-x="0"
     inkscape:window-height="731"
     inkscape:window-width="1366"
     units="px"
     showgrid="true"
     inkscape:document-rotation="0"
     inkscape:current-layer="layer1"
     inkscape:document-units="mm"
     inkscape:cy="29.325751"
     inkscape:cx="-18.969514"
     inkscape:zoom="2.8"
     inkscape:pageshadow="2"
     inkscape:pageopacity="0.0"
     borderopacity="1.0"
     bordercolor="#666666"
     pagecolor="#ffffff"
     id="base"
     inkscape:showpageshadow="false">
    <inkscape:grid
       empspacing="1"
       dotted="true"
       id="grid14602"
       type="xygrid"
       enabled="false" />
  </sodipodi:namedview>
  <metadata
     id="metadata14597">
    <rdf:RDF>
      <cc:Work
         rdf:about="">
        <dc:format>image/svg+xml</dc:format>
        <dc:type
           rdf:resource="http://purl.org/dc/dcmitype/StillImage" />
        <dc:title />
      </cc:Work>
    </rdf:RDF>
  </metadata>
  <g
     id="layer1"
     inkscape:groupmode="layer"
     inkscape:label="Layer 1"
     style="display:inline">
    <g
       aria-label="10
01"
       id="text834"
       style="font-size:4.8381px;line-height:1;font-family:'JetBrains Mono';-inkscape-font-specification:'JetBrains Mono';fill:#0784b5;fill-opacity:1;stroke-width:0.264583">
      <path
         d="M 1.7175248,3.5801899 V 3.1834657 H 2.6754686 V 0.41123447 L 1.7175248,1.1272733 V 0.64346327 L 2.5158113,0.04837698 H 3.1108976 V 3.1834657 h 0.7837722 v 0.3967242 z"
         style="text-align:center;text-anchor:middle;fill:#0784b5;fill-opacity:1;stroke-width:0.264583"
         id="path834" />
      <path
         d="m 5.6363784,3.6285709 q -0.4886481,0 -0.7789341,-0.2806098 Q 4.5719964,3.0625132 4.5719964,2.5883795 v -1.548192 q 0,-0.47413383 0.2854479,-0.75474363 Q 5.1477303,-4.0245056e-6 5.6363784,-4.0245056e-6 q 0.4886481,0 0.774096,0.2854478945056 0.290286,0.2806098 0.290286,0.75474363 v 1.548192 q 0,0.3144764 -0.1306287,0.5515433 Q 6.439503,3.3721516 6.197598,3.5027803 5.9605311,3.6285709 5.6363784,3.6285709 Z m 0,-0.3725337 q 0.290286,0 0.4644576,-0.1838478 0.1790097,-0.1886859 0.1790097,-0.4838099 v -1.548192 q 0,-0.29512413 -0.1790097,-0.47897193 -0.1741716,-0.1886859 -0.4644576,-0.1886859 -0.290286,0 -0.4692957,0.1886859 -0.1741716,0.1838478 -0.1741716,0.47897193 v 1.548192 q 0,0.295124 0.1741716,0.4838099 0.1790097,0.1838478 0.4692957,0.1838478 z m 0,-1.1563058 q -0.1306287,0 -0.2128764,-0.082248 -0.07741,-0.082248 -0.07741,-0.2177145 0,-0.1306287 0.07741,-0.2080383 0.082248,-0.082248 0.2128764,-0.082248 0.1306287,0 0.2080383,0.082248 0.082248,0.07741 0.082248,0.2080383 0,0.1354668 -0.082248,0.2177145 -0.07741,0.082248 -0.2080383,0.082248 z"
         style="text-align:center;text-anchor:middle;fill:#0784b5;fill-opacity:1;stroke-width:0.264583"
         id="path836" />
      <path
         d="m 2.7335258,8.4666709 q -0.4886481,0 -0.7789341,-0.2806098 Q 1.6691438,7.9006132 1.6691438,7.4264794 v -1.548192 q 0,-0.4741338 0.2854479,-0.7547436 0.290286,-0.2854479 0.7789341,-0.2854479 0.4886481,0 0.774096,0.2854479 0.290286,0.2806098 0.290286,0.7547436 v 1.548192 q 0,0.3144765 -0.1306287,0.5515434 Q 3.5366504,8.2102516 3.2947454,8.3408803 3.0576785,8.4666709 2.7335258,8.4666709 Z m 0,-0.3725337 q 0.290286,0 0.4644576,-0.1838478 0.1790097,-0.1886859 0.1790097,-0.48381 v -1.548192 q 0,-0.2951241 -0.1790097,-0.4789719 -0.1741716,-0.1886859 -0.4644576,-0.1886859 -0.290286,0 -0.4692957,0.1886859 -0.1741716,0.1838478 -0.1741716,0.4789719 v 1.548192 q 0,0.2951241 0.1741716,0.48381 0.1790097,0.1838478 0.4692957,0.1838478 z m 0,-1.1563059 q -0.1306287,0 -0.2128764,-0.082248 -0.07741,-0.082248 -0.07741,-0.2177145 0,-0.1306287 0.07741,-0.2080383 0.082248,-0.082248 0.2128764,-0.082248 0.1306287,0 0.2080383,0.082248 0.082248,0.07741 0.082248,0.2080383 0,0.1354668 -0.082248,0.2177145 -0.07741,0.082248 -0.2080383,0.082248 z"
         style="text-align:center;text-anchor:middle;fill:#0784b5;fill-opacity:1;stroke-width:0.264583"
         id="path838" />
      <path
         d="M 4.6203774,8.4182899 V 8.0215657 H 5.5783212 V 5.2493344 L 4.6203774,5.9653732 v -0.48381 L 5.4186639,4.8864769 h 0.5950863 v 3.1350888 h 0.7837722 v 0.3967242 z"
         style="text-align:center;text-anchor:middle;fill:#0784b5;fill-opacity:1;stroke-width:0.264583"
         id="path840" />
    </g>
  </g>
</svg>
