<?xml version="1.0" encoding="UTF-8" standalone="no"?>
<svg
   xmlns:dc="http://purl.org/dc/elements/1.1/"
   xmlns:cc="http://creativecommons.org/ns#"
   xmlns:rdf="http://www.w3.org/1999/02/22-rdf-syntax-ns#"
   xmlns:svg="http://www.w3.org/2000/svg"
   xmlns="http://www.w3.org/2000/svg"
   xmlns:sodipodi="http://sodipodi.sourceforge.net/DTD/sodipodi-0.dtd"
   xmlns:inkscape="http://www.inkscape.org/namespaces/inkscape"
   sodipodi:docname="mask-icon.svg"
   inkscape:version="1.0.2 (e86c870879, 2021-01-15)"
   id="svg14600"
   version="1.1"
   viewBox="0 0 8.4666665 8.4666669"
   height="32"
   width="32"
   inkscape:export-filename="/home/gilvanjr/Documentos/Github/PersonalPortfolio/favicon.ico.png"
   inkscape:export-xdpi="96.000008"
   inkscape:export-ydpi="96.000008">
  <defs
     id="defs14594" />
  <sodipodi:namedview
     inkscape:window-maximized="1"
     inkscape:window-y="0"
     inkscape:window-x="0"
     inkscape:window-height="731"
     inkscape:window-width="1366"
     units="px"
     showgrid="true"
     inkscape:document-rotation="0"
     inkscape:current-layer="layer1"
     inkscape:document-units="mm"
     inkscape:cy="22.34483"
     inkscape:cx="10.114673"
     inkscape:zoom="11.2"
     inkscape:pageshadow="2"
     inkscape:pageopacity="0.0"
     borderopacity="1.0"
     bordercolor="#666666"
     pagecolor="#ffffff"
     id="base"
     inkscape:showpageshadow="false">
    <inkscape:grid
       empspacing="1"
       dotted="true"
       id="grid14602"
       type="xygrid"
       enabled="false" />
  </sodipodi:namedview>
  <metadata
     id="metadata14597">
    <rdf:RDF>
      <cc:Work
         rdf:about="">
        <dc:format>image/svg+xml</dc:format>
        <dc:type
           rdf:resource="http://purl.org/dc/dcmitype/StillImage" />
        <dc:title></dc:title>
      </cc:Work>
    </rdf:RDF>
  </metadata>
  <g
     id="layer1"
     inkscape:groupmode="layer"
     inkscape:label="Layer 1"
     style="display:inline">
    <path
       id="rect16-3-6-2-29-1-1-31-4"
       style="display:inline;fill:#0784b5;fill-opacity:1;fill-rule:evenodd;stroke-width:2.64584"
       d="M 3.8484849,0 V 0.38484849 H 4.2333333 4.6181819 V 0 H 4.2333333 Z m 0.769697,0.38484849 V 0.76969696 1.1545454 1.5393939 1.9242425 H 5.0030303 V 1.5393939 1.1545454 0.76969696 0.38484849 Z M 5.0030303,1.9242425 V 2.3090909 2.6939393 3.0787877 H 4.6181819 4.2333333 3.8484849 3.4636363 V 2.6939393 2.3090909 1.9242425 H 3.0787879 V 2.3090909 2.6939393 3.0787877 H 2.6939393 2.309091 1.9242425 V 3.4636363 H 2.309091 2.6939393 3.0787879 V 3.8484849 4.2333333 4.6181819 5.0030303 H 2.6939393 2.309091 1.9242425 V 5.3878786 H 2.309091 2.6939393 3.0787879 V 5.7727272 6.1575756 6.5424242 H 3.4636363 V 6.1575756 5.7727272 5.3878786 H 3.8484849 4.2333333 4.6181819 5.0030303 V 5.7727272 6.1575756 6.5424242 H 5.3878789 V 6.1575756 5.7727272 5.3878786 H 5.7727272 6.1575759 6.5424242 V 5.0030303 H 6.1575759 5.7727272 5.3878789 V 4.6181819 4.2333333 3.8484849 3.4636363 H 5.7727272 6.1575759 6.5424242 V 3.0787877 H 6.1575759 5.7727272 5.3878789 V 2.6939393 2.3090909 1.9242425 Z m 0.3848486,0 H 5.7727272 6.1575759 V 1.5393939 H 5.7727272 5.3878789 Z M 6.1575759,1.5393939 H 6.5424242 6.9272729 V 1.1545454 H 6.5424242 6.1575759 Z m 0.769697,0 V 1.9242425 2.3090909 H 7.3121212 V 1.9242425 1.5393939 Z m 0,0.769697 H 6.5424242 V 2.6939393 3.0787877 H 6.9272729 V 2.6939393 Z M 6.5424242,3.4636363 V 3.8484849 H 6.9272729 7.3121212 7.6969698 8.0818182 V 3.4636363 H 7.6969698 7.3121212 6.9272729 Z m 1.539394,0.3848486 V 4.2333333 4.6181819 H 8.4666668 V 4.2333333 3.8484849 Z m 0,0.769697 H 7.6969698 7.3121212 6.9272729 6.5424242 V 5.0030303 H 6.9272729 7.3121212 7.6969698 8.0818182 Z M 6.5424242,5.3878786 V 5.7727272 6.1575756 H 6.9272729 V 5.7727272 5.3878786 Z m 0.3848487,0.769697 V 6.5424242 6.9272726 H 7.3121212 V 6.5424242 6.1575756 Z m 0,0.769697 H 6.5424242 6.1575759 v 0.3848486 h 0.3848483 0.3848487 z m -0.769697,0 V 6.5424242 H 5.7727272 5.3878789 V 6.9272726 H 5.7727272 Z M 5.0030303,6.5424242 H 4.6181819 V 6.9272726 7.3121212 7.6969696 8.0818179 H 5.0030303 V 7.6969696 7.3121212 6.9272726 Z M 4.6181819,8.0818179 H 4.2333333 3.8484849 v 0.3848487 h 0.3848484 0.3848486 z m -0.769697,0 V 7.6969696 7.3121212 6.9272726 6.5424242 H 3.4636363 V 6.9272726 7.3121212 7.6969696 8.0818179 Z M 3.0787879,6.5424242 H 2.6939393 2.309091 V 6.9272726 H 2.6939393 3.0787879 Z M 2.309091,6.9272726 H 1.9242425 1.539394 V 7.3121212 H 1.9242425 2.309091 Z m -0.769697,0 V 6.5424242 6.1575756 H 1.1545455 v 0.3848486 0.3848484 z m 0,-0.769697 H 1.9242425 V 5.7727272 5.3878786 H 1.539394 V 5.7727272 Z M 1.9242425,5.0030303 V 4.6181819 H 1.539394 1.1545455 0.76969698 0.38484849 V 5.0030303 H 0.76969698 1.1545455 1.539394 Z M 0.38484849,4.6181819 V 4.2333333 3.8484849 H 0 v 0.3848484 0.3848486 z m 0,-0.769697 H 0.76969698 1.1545455 1.539394 1.9242425 V 3.4636363 H 1.539394 1.1545455 0.76969698 0.38484849 Z M 1.9242425,3.0787877 V 2.6939393 2.3090909 H 1.539394 V 2.6939393 3.0787877 Z M 1.539394,2.3090909 V 1.9242425 1.5393939 H 1.1545455 v 0.3848486 0.3848484 z m 0,-0.769697 H 1.9242425 2.309091 V 1.1545454 H 1.9242425 1.539394 Z m 0.769697,0 V 1.9242425 H 2.6939393 3.0787879 V 1.5393939 H 2.6939393 Z M 3.4636363,1.9242425 H 3.8484849 V 1.5393939 1.1545454 0.76969696 0.38484849 H 3.4636363 V 0.76969696 1.1545454 1.5393939 Z m 0,1.5393938 H 3.8484849 4.2333333 4.6181819 5.0030303 V 3.8484849 4.2333333 4.6181819 5.0030303 H 4.6181819 4.2333333 3.8484849 3.4636363 V 4.6181819 4.2333333 3.8484849 Z M 3.8484849,3.8484849 V 4.2333333 4.6181819 H 4.2333333 4.6181819 V 4.2333333 3.8484849 H 4.2333333 Z"
       inkscape:export-xdpi="872.72998"
       inkscape:export-ydpi="872.72998" />
  </g>
</svg>
