<?xml version="1.0" encoding="UTF-8" standalone="no"?>
<svg
   xmlns:dc="http://purl.org/dc/elements/1.1/"
   xmlns:cc="http://creativecommons.org/ns#"
   xmlns:rdf="http://www.w3.org/1999/02/22-rdf-syntax-ns#"
   xmlns:svg="http://www.w3.org/2000/svg"
   xmlns="http://www.w3.org/2000/svg"
   xmlns:sodipodi="http://sodipodi.sourceforge.net/DTD/sodipodi-0.dtd"
   xmlns:inkscape="http://www.inkscape.org/namespaces/inkscape"
   sodipodi:docname="mask-icon.svg"
   inkscape:version="1.0.2 (e86c870879, 2021-01-15)"
   id="svg14600"
   version="1.1"
   viewBox="0 0 8.4666665 8.4666669"
   height="32"
   width="32">
  <defs
     id="defs14594" />
  <sodipodi:namedview
     inkscape:window-maximized="1"
     inkscape:window-y="0"
     inkscape:window-x="0"
     inkscape:window-height="731"
     inkscape:window-width="1366"
     units="px"
     showgrid="true"
     inkscape:document-rotation="0"
     inkscape:current-layer="layer1"
     inkscape:document-units="mm"
     inkscape:cy="137.43451"
     inkscape:cx="56.557336"
     inkscape:zoom="1.4"
     inkscape:pageshadow="2"
     inkscape:pageopacity="0.0"
     borderopacity="1.0"
     bordercolor="#666666"
     pagecolor="#ffffff"
     id="base"
     inkscape:showpageshadow="false">
    <inkscape:grid
       empspacing="1"
       dotted="true"
       id="grid14602"
       type="xygrid"
       enabled="false" />
  </sodipodi:namedview>
  <metadata
     id="metadata14597">
    <rdf:RDF>
      <cc:Work
         rdf:about="">
        <dc:format>image/svg+xml</dc:format>
        <dc:type
           rdf:resource="http://purl.org/dc/dcmitype/StillImage" />
        <dc:title></dc:title>
      </cc:Work>
    </rdf:RDF>
  </metadata>
  <g
     id="layer1"
     inkscape:groupmode="layer"
     inkscape:label="Layer 1"
     style="display:inline">
    <path
       id="rect16-3-6-2-29-1-1-31-4"
       style="display:inline;fill:#0080ff;fill-opacity:1;fill-rule:evenodd;stroke-width:2.64583"
       d="M 3.848485,0 V 0.38484849 H 4.2333335 4.618182 V 0 H 4.2333335 Z M 4.618182,0.38484849 V 0.76969698 1.1545455 1.5393939 1.9242425 H 5.0030305 V 1.5393939 1.1545455 0.76969698 0.38484849 Z M 5.0030305,1.9242425 V 2.309091 2.6939394 3.0787879 H 4.618182 4.2333335 3.848485 3.4636365 V 2.6939394 2.309091 1.9242425 H 3.078788 V 2.309091 2.6939394 3.0787879 H 2.6939395 2.309091 1.9242425 V 3.4636365 H 2.309091 2.6939395 3.078788 V 3.8484849 4.2333334 4.618182 5.0030304 H 2.6939395 2.309091 1.9242425 V 5.3878789 H 2.309091 2.6939395 3.078788 V 5.7727275 6.1575759 6.5424243 H 3.4636365 V 6.1575759 5.7727275 5.3878789 H 3.848485 4.2333335 4.618182 5.0030305 V 5.7727275 6.1575759 6.5424243 H 5.387879 V 6.1575759 5.7727275 5.3878789 H 5.7727275 6.157576 6.5424245 V 5.0030304 H 6.157576 5.7727275 5.387879 V 4.618182 4.2333334 3.8484849 3.4636365 H 5.7727275 6.157576 6.5424245 V 3.0787879 H 6.157576 5.7727275 5.387879 V 2.6939394 2.309091 1.9242425 Z m 0.3848485,0 H 5.7727275 6.157576 V 1.5393939 H 5.7727275 5.387879 Z M 6.157576,1.5393939 H 6.5424245 6.927273 V 1.1545455 H 6.5424245 6.157576 Z m 0.769697,0 V 1.9242425 2.309091 H 7.3121215 V 1.9242425 1.5393939 Z m 0,0.7696971 H 6.5424245 V 2.6939394 3.0787879 H 6.927273 V 2.6939394 Z M 6.5424245,3.4636365 V 3.8484849 H 6.927273 7.3121215 7.69697 8.0818185 V 3.4636365 H 7.69697 7.3121215 6.927273 Z m 1.539394,0.3848484 V 4.2333334 4.618182 H 8.466667 V 4.2333334 3.8484849 Z m 0,0.7696971 H 7.69697 7.3121215 6.927273 6.5424245 V 5.0030304 H 6.927273 7.3121215 7.69697 8.0818185 Z M 6.5424245,5.3878789 V 5.7727275 6.1575759 H 6.927273 V 5.7727275 5.3878789 Z M 6.927273,6.1575759 V 6.5424243 6.9272728 H 7.3121215 V 6.5424243 6.1575759 Z m 0,0.7696969 H 6.5424245 6.157576 V 7.3121214 H 6.5424245 6.927273 Z m -0.769697,0 V 6.5424243 H 5.7727275 5.387879 V 6.9272728 H 5.7727275 Z M 5.0030305,6.5424243 H 4.618182 V 6.9272728 7.3121214 7.6969698 8.0818183 H 5.0030305 V 7.6969698 7.3121214 6.9272728 Z M 4.618182,8.0818183 H 4.2333335 3.848485 V 8.4666669 H 4.2333335 4.618182 Z m -0.769697,0 V 7.6969698 7.3121214 6.9272728 6.5424243 H 3.4636365 V 6.9272728 7.3121214 7.6969698 8.0818183 Z M 3.078788,6.5424243 H 2.6939395 2.309091 V 6.9272728 H 2.6939395 3.078788 Z M 2.309091,6.9272728 H 1.9242425 1.539394 V 7.3121214 H 1.9242425 2.309091 Z m -0.769697,0 V 6.5424243 6.1575759 H 1.1545455 v 0.3848484 0.3848485 z m 0,-0.7696969 H 1.9242425 V 5.7727275 5.3878789 H 1.539394 V 5.7727275 Z M 1.9242425,5.0030304 V 4.618182 H 1.539394 1.1545455 0.769697 0.3848485 V 5.0030304 H 0.769697 1.1545455 1.539394 Z M 0.3848485,4.618182 V 4.2333334 3.8484849 H 0 V 4.2333334 4.618182 Z m 0,-0.7696971 H 0.769697 1.1545455 1.539394 1.9242425 V 3.4636365 H 1.539394 1.1545455 0.769697 0.3848485 Z m 1.539394,-0.769697 V 2.6939394 2.309091 H 1.539394 V 2.6939394 3.0787879 Z M 1.539394,2.309091 V 1.9242425 1.5393939 H 1.1545455 V 1.9242425 2.309091 Z m 0,-0.7696971 H 1.9242425 2.309091 V 1.1545455 H 1.9242425 1.539394 Z m 0.769697,0 V 1.9242425 H 2.6939395 3.078788 V 1.5393939 H 2.6939395 Z M 3.4636365,1.9242425 H 3.848485 V 1.5393939 1.1545455 0.76969698 0.38484849 H 3.4636365 V 0.76969698 1.1545455 1.5393939 Z m 0,1.539394 H 3.848485 4.2333335 4.618182 5.0030305 V 3.8484849 4.2333334 4.618182 5.0030304 H 4.618182 4.2333335 3.848485 3.4636365 V 4.618182 4.2333334 3.8484849 Z M 3.848485,3.8484849 V 4.2333334 4.618182 H 4.2333335 4.618182 V 4.2333334 3.8484849 H 4.2333335 Z"
       inkscape:export-xdpi="872.72998"
       inkscape:export-ydpi="872.72998" />
  </g>
</svg>
