<?xml version="1.0" encoding="UTF-8" standalone="no"?>
<svg
   xmlns:dc="http://purl.org/dc/elements/1.1/"
   xmlns:cc="http://creativecommons.org/ns#"
   xmlns:rdf="http://www.w3.org/1999/02/22-rdf-syntax-ns#"
   xmlns:svg="http://www.w3.org/2000/svg"
   xmlns="http://www.w3.org/2000/svg"
   xmlns:sodipodi="http://sodipodi.sourceforge.net/DTD/sodipodi-0.dtd"
   xmlns:inkscape="http://www.inkscape.org/namespaces/inkscape"
   id="Capa_1"
   enable-background="new 0 0 511.983 511.983"
   height="512"
   viewBox="0 0 511.983 511.983"
   width="512"
   version="1.1"
   sodipodi:docname="fork.svg"
   inkscape:version="1.0.2 (e86c870879, 2021-01-15)">
  <metadata
     id="metadata27">
    <rdf:RDF>
      <cc:Work
         rdf:about="">
        <dc:format>image/svg+xml</dc:format>
        <dc:type
           rdf:resource="http://purl.org/dc/dcmitype/StillImage" />
        <dc:title></dc:title>
      </cc:Work>
    </rdf:RDF>
  </metadata>
  <defs
     id="defs25" />
  <sodipodi:namedview
     pagecolor="#ffffff"
     bordercolor="#666666"
     borderopacity="1"
     objecttolerance="10"
     gridtolerance="10"
     guidetolerance="10"
     inkscape:pageopacity="0"
     inkscape:pageshadow="2"
     inkscape:window-width="1366"
     inkscape:window-height="731"
     id="namedview23"
     showgrid="false"
     inkscape:zoom="0.68086649"
     inkscape:cx="208.8956"
     inkscape:cy="258.79615"
     inkscape:window-x="0"
     inkscape:window-y="0"
     inkscape:window-maximized="1"
     inkscape:current-layer="Capa_1" />
  <g
     id="g20"
     style="fill:#0784b5;fill-opacity:1">
    <circle
       cx="436.983"
       cy="437.00201"
       r="7.5"
       id="circle2"
       style="fill:#0784b5;fill-opacity:1" />
    <circle
       cx="466.983"
       cy="467.00201"
       r="7.5"
       id="circle4"
       style="fill:#0784b5;fill-opacity:1" />
    <circle
       cx="74.983002"
       cy="437.00201"
       r="7.5"
       id="circle6"
       style="fill:#0784b5;fill-opacity:1" />
    <circle
       cx="44.983002"
       cy="467.00201"
       r="7.5"
       id="circle8"
       style="fill:#0784b5;fill-opacity:1" />
    <path
       d="m 42.786,95.838 c -2.929,-2.929 -7.678,-2.929 -10.607,0 -2.929,2.929 -2.929,7.678 0,10.607 l 63.64,63.64 c 2.929,2.929 7.678,2.929 10.607,0 2.929,-2.929 2.929,-7.678 0,-10.607 z"
       id="path10"
       style="fill:#0784b5;fill-opacity:1" />
    <path
       d="m 63.999,74.625 c -2.929,-2.929 -7.678,-2.929 -10.607,0 -2.929,2.929 -2.929,7.678 0,10.607 l 63.64,63.64 c 2.929,2.929 7.678,2.929 10.607,0 2.929,-2.929 2.929,-7.678 0,-10.607 z"
       id="path12"
       style="fill:#0784b5;fill-opacity:1" />
    <path
       d="m 85.212,53.412 c -2.929,-2.929 -7.678,-2.929 -10.607,0 -2.929,2.929 -2.929,7.678 0,10.607 l 63.64,63.64 c 2.929,2.929 7.678,2.929 10.607,0 2.929,-2.929 2.929,-7.678 0,-10.607 z"
       id="path14"
       style="fill:#0784b5;fill-opacity:1" />
    <path
       d="m 106.425,32.199 c -2.929,-2.929 -7.678,-2.929 -10.607,0 -2.929,2.929 -2.929,7.678 0,10.607 l 63.64,63.64 c 2.929,2.929 7.678,2.929 10.607,0 2.929,-2.929 2.929,-7.678 0,-10.607 z"
       id="path16"
       style="fill:#0784b5;fill-opacity:1" />
    <path
       d="m 362.049,298.428 c -1.147,-1.147 -2.636,-1.892 -4.243,-2.122 l -34.648,-4.95 -19.446,-19.445 c -2.929,-2.93 -7.678,-2.929 -10.606,0 -2.929,2.929 -2.929,7.678 0,10.606 l 15.91,15.91 -10.607,10.607 -31.82,-31.82 81.51,-81.51 c 25.597,12.262 56.442,7.197 76.834,-13.195 l 84.853,-84.853 c 2.929,-2.929 2.929,-7.678 0,-10.607 -14.621,-14.621 -38.412,-14.621 -53.033,0 l -58.336,58.336 -31.82,-31.82 58.336,-58.336 c 14.621,-14.621 14.621,-38.412 0,-53.033 -2.929,-2.929 -7.678,-2.929 -10.607,0 l -84.853,84.853 c -20.392,20.392 -25.457,51.237 -13.195,76.834 l -60.296,60.296 -50.994,-50.994 c 17.802,-31.854 12.455,-72.398 -13.711,-98.563 l -63.64,-63.64 c -14.621,-14.621 -38.412,-14.621 -53.033,0 l -63.64,63.64 c -14.621,14.621 -14.621,38.412 0,53.033 l 63.64,63.64 c 26.166,26.166 66.709,31.513 98.563,13.711 l 50.994,50.994 -35.355,35.355 -34.648,4.95 c -1.607,0.23 -3.095,0.974 -4.243,2.121 L 13.163,435.182 c -17.545,17.545 -17.545,46.094 0,63.64 17.545,17.545 46.094,17.545 63.64,0 L 213.557,362.068 c 1.147,-1.147 1.892,-2.636 2.121,-4.243 l 4.95,-34.648 35.355,-35.355 35.355,35.355 4.95,34.648 c 0.229,1.606 0.974,3.095 2.122,4.243 l 136.754,136.754 c 8.772,8.772 20.296,13.159 31.819,13.159 11.524,0 23.047,-4.387 31.82,-13.159 17.545,-17.546 17.545,-46.094 0,-63.64 z M 179.609,190.235 c -2.522,-2.522 -6.472,-2.919 -9.445,-0.949 -26.613,17.631 -62.34,14.016 -84.951,-8.595 l -63.64,-63.64 c -8.773,-8.773 -8.773,-23.047 0,-31.82 l 63.64,-63.64 c 8.773,-8.773 23.047,-8.773 31.82,0 l 63.64,63.64 c 22.611,22.611 26.226,58.338 8.595,84.951 -1.97,2.973 -1.573,6.923 0.949,9.445 l 55.161,55.161 -10.607,10.607 z M 66.196,488.215 c -11.697,11.697 -30.729,11.697 -42.426,0 -11.697,-11.697 -11.697,-30.729 0,-42.426 l 131.45,-131.45 42.426,42.426 z m 136.754,-147.36 -31.82,-31.82 18.562,-2.652 15.91,15.91 z m 10.606,-31.82 -10.607,-10.607 127.861,-127.861 c 2.42,-2.42 2.895,-6.171 1.155,-9.117 -12.172,-20.61 -8.835,-46.842 8.115,-63.792 l 78.641,-78.641 c 3.985,8.362 2.52,18.693 -4.395,25.608 l -63.64,63.64 c -2.929,2.929 -2.929,7.678 0,10.607 l 42.426,42.426 c 2.929,2.929 7.678,2.929 10.607,0 l 63.64,-63.64 c 6.914,-6.914 17.246,-8.379 25.608,-4.395 l -78.641,78.641 c -16.95,16.95 -43.183,20.287 -63.792,8.115 -2.947,-1.74 -6.697,-1.265 -9.117,1.155 z m 92.808,13.258 15.91,-15.91 18.561,2.652 -31.82,31.82 z m 181.832,165.922 c -11.697,11.697 -30.73,11.697 -42.427,0 l -131.45,-131.451 42.426,-42.426 131.451,131.45 c 11.697,11.697 11.697,30.73 0,42.427 z"
       id="path18"
       style="fill:#0784b5;fill-opacity:1" />
  </g>
</svg>
