<?xml version="1.0" encoding="UTF-8" standalone="no"?>
<svg
   xmlns:dc="http://purl.org/dc/elements/1.1/"
   xmlns:cc="http://creativecommons.org/ns#"
   xmlns:rdf="http://www.w3.org/1999/02/22-rdf-syntax-ns#"
   xmlns:svg="http://www.w3.org/2000/svg"
   xmlns="http://www.w3.org/2000/svg"
   xmlns:sodipodi="http://sodipodi.sourceforge.net/DTD/sodipodi-0.dtd"
   xmlns:inkscape="http://www.inkscape.org/namespaces/inkscape"
   version="1.1"
   id="Capa_1"
   x="0px"
   y="0px"
   viewBox="0 0 512.00001 512.00001"
   xml:space="preserve"
   sodipodi:docname="shield.svg"
   width="512"
   height="512"
   inkscape:version="1.0.2 (e86c870879, 2021-01-15)"><metadata
   id="metadata43"><rdf:RDF><cc:Work
       rdf:about=""><dc:format>image/svg+xml</dc:format><dc:type
         rdf:resource="http://purl.org/dc/dcmitype/StillImage" /><dc:title></dc:title></cc:Work></rdf:RDF></metadata><defs
   id="defs41" /><sodipodi:namedview
   pagecolor="#ffffff"
   bordercolor="#666666"
   borderopacity="1"
   objecttolerance="10"
   gridtolerance="10"
   guidetolerance="10"
   inkscape:pageopacity="0"
   inkscape:pageshadow="2"
   inkscape:window-width="1366"
   inkscape:window-height="731"
   id="namedview39"
   showgrid="false"
   inkscape:zoom="0.68086783"
   inkscape:cx="240.72824"
   inkscape:cy="274.71217"
   inkscape:window-x="0"
   inkscape:window-y="0"
   inkscape:window-maximized="1"
   inkscape:current-layer="Capa_1" />
<g
   id="g6"
   transform="matrix(1.0000015,0,0,1.0000015,4.9097493e-4,9.2851681e-4)"
   style="fill:#0784b5;fill-opacity:1">
	<g
   id="g4"
   style="fill:#0784b5;fill-opacity:1">
		<path
   d="M 501.337,19.635 C 487.12,5.421 463.991,5.423 449.776,19.636 c -6.887,6.887 -10.68,16.042 -10.68,25.781 0,1.647 0.117,3.274 0.331,4.88 l -48.633,12.186 -11.811,16.537 -16.681,-16.681 -21.286,21.286 18.601,18.601 -31.192,31.192 c -21.033,-6.778 -45.786,-11.939 -72.426,-11.939 -26.448,0 -51.038,5.087 -71.971,11.792 L 152.458,102.15 170.983,83.625 149.697,62.339 133.016,79.02 121.203,62.482 72.569,50.297 c 0.214,-1.606 0.331,-3.233 0.331,-4.88 0,-9.739 -3.792,-18.894 -10.679,-25.78 -14.215,-14.215 -37.345,-14.215 -51.561,0 -14.214,14.216 -14.214,37.346 0,51.561 6.886,6.887 16.042,10.679 25.78,10.679 1.647,0 3.274,-0.117 4.88,-0.331 l 12.186,48.633 16.538,11.813 -16.681,16.681 21.286,21.286 18.677,-18.677 17.039,16.797 c 0.048,49.47 7.163,96.073 21.156,138.52 1.129,3.426 2.316,6.818 3.534,10.19 l -117.104,117.104 5.912,53.216 53.217,5.913 97.677,-97.677 c 1.199,1.774 2.413,3.534 3.644,5.281 34.043,48.342 68.289,69.661 69.73,70.545 l 7.869,4.827 7.87,-4.827 c 1.441,-0.884 35.686,-22.203 69.729,-70.545 1.733,-2.461 3.423,-4.957 5.094,-7.471 l 98.777,97.373 53.151,-5.906 5.92,-53.283 -118.71,-117.023 c 0.905,-2.56 1.793,-5.13 2.647,-7.72 13.956,-42.334 21.067,-88.801 21.153,-138.123 l 17.118,-17.118 18.602,18.602 21.286,-21.286 -16.68,-16.681 16.538,-11.813 12.186,-48.633 c 1.606,0.214 3.233,0.331 4.88,0.331 9.738,0 18.893,-3.792 25.78,-10.679 v -0.001 c 14.211,-14.213 14.211,-37.343 -0.004,-51.56 z M 40.935,49.911 c -1.62,1.62 -3.51,1.861 -4.494,1.861 -0.984,-10e-4 -2.875,-0.242 -4.495,-1.862 -2.478,-2.478 -2.478,-6.51 0,-8.988 1.239,-1.239 2.866,-1.858 4.495,-1.858 1.628,0 3.255,0.619 4.495,1.858 1.62,1.62 1.861,3.511 1.861,4.495 0,0.984 -0.242,2.874 -1.862,4.494 z m 50.69,70.499 -11.608,-8.292 -7.734,-30.859 30.86,7.733 8.292,11.608 z m 39.579,35.937 -16.59,-16.353 16.556,-16.555 22.053,21.739 c -8.761,3.979 -16.192,7.877 -22.019,11.169 z m -65.181,315.159 -14.9,-1.656 -1.656,-14.9 98.002,-98.001 c 3.48,7.492 7.192,14.822 11.137,21.975 z m 174.925,-34.409 c -10.824,-10.071 -24.332,-24.487 -37.935,-43.802 -18.1,-25.702 -32.534,-54.678 -42.9,-86.122 -12.264,-37.201 -18.841,-77.997 -19.578,-121.374 14.902,-8.943 53.877,-29.675 100.412,-33.573 v 46.251 c -13.609,1.472 -27.72,4.896 -42.132,10.25 l -11.042,4.102 1.329,11.704 c 5.861,51.648 21.776,97.403 47.301,135.993 1.473,2.228 2.999,4.432 4.545,6.617 z m 15.051,-101.915 c -17.818,-29.648 -29.696,-63.863 -35.403,-101.994 12.356,-3.617 24.222,-5.446 35.403,-5.446 11.1,0 22.964,1.847 35.395,5.504 -5.712,38.106 -17.586,72.305 -35.395,101.936 z m 53.899,56.81 c -13.258,19.037 -27.177,34.158 -38.847,45.08 v -69.927 c 1.542,-2.18 3.069,-4.384 4.546,-6.617 25.515,-38.575 41.426,-84.308 47.293,-135.926 l 1.331,-11.708 -11.047,-4.102 c -14.476,-5.376 -28.584,-8.815 -42.123,-10.302 v -46.265 c 46.535,3.897 85.509,24.631 100.411,33.573 -0.729,42.971 -7.191,83.411 -19.234,120.327 -10.215,31.312 -24.457,60.202 -42.33,85.867 z m 155.111,60.538 -1.649,14.834 -14.967,1.663 -93.739,-92.407 c 3.891,-7.182 7.555,-14.534 10.981,-22.052 z M 381.042,156.488 c -5.793,-3.281 -13.201,-7.179 -21.947,-11.166 l 21.809,-21.809 16.555,16.557 z m 50.94,-44.369 -11.608,8.292 -19.81,-19.81 8.293,-11.608 30.859,-7.733 z m 48.07,-62.209 c -1.62,1.621 -3.511,1.861 -4.495,1.861 -0.984,0 -2.874,-0.242 -4.493,-1.862 -1.62,-1.62 -1.861,-3.51 -1.861,-4.494 0,-0.984 0.242,-2.874 1.861,-4.495 1.239,-1.238 2.866,-1.858 4.493,-1.858 1.627,0 3.255,0.619 4.495,1.858 2.476,2.48 2.476,6.513 0,8.99 z"
   id="path2"
   style="fill:#0784b5;fill-opacity:1" />
	</g>
</g>
<g
   id="g8">
</g>
<g
   id="g10">
</g>
<g
   id="g12">
</g>
<g
   id="g14">
</g>
<g
   id="g16">
</g>
<g
   id="g18">
</g>
<g
   id="g20">
</g>
<g
   id="g22">
</g>
<g
   id="g24">
</g>
<g
   id="g26">
</g>
<g
   id="g28">
</g>
<g
   id="g30">
</g>
<g
   id="g32">
</g>
<g
   id="g34">
</g>
<g
   id="g36">
</g>
</svg>
