<?xml version="1.0" encoding="UTF-8" standalone="no"?>
<svg
   sodipodi:docname="atomo.svg"
   inkscape:version="1.1 (ce6663b3b7, 2021-05-25)"
   id="svg14600"
   version="1.1"
   viewBox="0 0 135.46666 135.46667"
   height="512"
   width="512"
   xmlns:inkscape="http://www.inkscape.org/namespaces/inkscape"
   xmlns:sodipodi="http://sodipodi.sourceforge.net/DTD/sodipodi-0.dtd"
   xmlns="http://www.w3.org/2000/svg"
   xmlns:svg="http://www.w3.org/2000/svg"
   xmlns:rdf="http://www.w3.org/1999/02/22-rdf-syntax-ns#"
   xmlns:cc="http://creativecommons.org/ns#"
   xmlns:dc="http://purl.org/dc/elements/1.1/">
  <defs
     id="defs14594" />
  <sodipodi:namedview
     inkscape:window-maximized="1"
     inkscape:window-y="0"
     inkscape:window-x="0"
     inkscape:window-height="731"
     inkscape:window-width="1366"
     units="px"
     showgrid="true"
     inkscape:document-rotation="0"
     inkscape:current-layer="layer1"
     inkscape:document-units="mm"
     inkscape:cy="307.08637"
     inkscape:cx="144.95689"
     inkscape:zoom="0.9899495"
     inkscape:pageshadow="2"
     inkscape:pageopacity="0.0"
     borderopacity="1.0"
     bordercolor="#666666"
     pagecolor="#ffffff"
     id="base"
     inkscape:pagecheckerboard="0"
     inkscape:snap-grids="false"
     inkscape:snap-page="true"
     width="512px">
    <inkscape:grid
       empspacing="1"
       dotted="true"
       id="grid14602"
       type="xygrid"
       enabled="false" />
  </sodipodi:namedview>
  <metadata
     id="metadata14597">
    <rdf:RDF>
      <cc:Work
         rdf:about="">
        <dc:format>image/svg+xml</dc:format>
        <dc:type
           rdf:resource="http://purl.org/dc/dcmitype/StillImage" />
      </cc:Work>
    </rdf:RDF>
  </metadata>
  <g
     id="layer1"
     inkscape:groupmode="layer"
     inkscape:label="Layer 1"
     style="display:inline">
    <path
       id="path31"
       style="fill:#3182ce;fill-opacity:1;stroke-width:2.27611"
       d="M 256 0 A 255.99999 255.99999 0 0 0 0 256 A 255.99999 255.99999 0 0 0 256 512 A 255.99999 255.99999 0 0 0 512 256 A 255.99999 255.99999 0 0 0 256 0 z M 235.63672 32 L 256 32 L 276.36328 32 L 276.36328 52.363281 L 296.72656 52.363281 L 296.72656 72.726562 L 296.72656 93.091797 L 296.72656 113.45508 L 296.72656 133.81836 L 317.0918 133.81836 L 317.0918 113.45508 L 337.45508 113.45508 L 357.81836 113.45508 L 357.81836 93.091797 L 378.18164 93.091797 L 398.54492 93.091797 L 398.54492 113.45508 L 418.9082 113.45508 L 418.9082 133.81836 L 418.9082 154.18164 L 398.54492 154.18164 L 398.54492 174.54492 L 398.54492 194.9082 L 378.18164 194.9082 L 378.18164 215.27344 L 398.54492 215.27344 L 418.9082 215.27344 L 439.27344 215.27344 L 459.63672 215.27344 L 459.63672 235.63672 L 480 235.63672 L 480 256 L 480 276.36328 L 459.63672 276.36328 L 459.63672 296.72656 L 439.27344 296.72656 L 418.9082 296.72656 L 398.54492 296.72656 L 378.18164 296.72656 L 378.18164 317.0918 L 398.54492 317.0918 L 398.54492 337.45508 L 398.54492 357.81836 L 418.9082 357.81836 L 418.9082 378.18164 L 418.9082 398.54492 L 398.54492 398.54492 L 398.54492 418.9082 L 378.18164 418.9082 L 357.81836 418.9082 L 357.81836 398.54492 L 337.45508 398.54492 L 317.0918 398.54492 L 317.0918 378.18164 L 296.72656 378.18164 L 296.72656 398.54492 L 296.72656 418.9082 L 296.72656 439.27344 L 296.72656 459.63672 L 276.36328 459.63672 L 276.36328 480 L 256 480 L 235.63672 480 L 235.63672 459.63672 L 215.27344 459.63672 L 215.27344 439.27344 L 215.27344 418.9082 L 215.27344 398.54492 L 215.27344 378.18164 L 194.9082 378.18164 L 194.9082 398.54492 L 174.54492 398.54492 L 154.18164 398.54492 L 154.18164 418.9082 L 133.81836 418.9082 L 113.45508 418.9082 L 113.45508 398.54492 L 93.091797 398.54492 L 93.091797 378.18164 L 93.091797 357.81836 L 113.45508 357.81836 L 113.45508 337.45508 L 113.45508 317.0918 L 133.81836 317.0918 L 133.81836 296.72656 L 113.45508 296.72656 L 93.091797 296.72656 L 72.726562 296.72656 L 52.363281 296.72656 L 52.363281 276.36328 L 32 276.36328 L 32 256 L 32 235.63672 L 52.363281 235.63672 L 52.363281 215.27344 L 72.726562 215.27344 L 93.091797 215.27344 L 113.45508 215.27344 L 133.81836 215.27344 L 133.81836 194.9082 L 113.45508 194.9082 L 113.45508 174.54492 L 113.45508 154.18164 L 93.091797 154.18164 L 93.091797 133.81836 L 93.091797 113.45508 L 113.45508 113.45508 L 113.45508 93.091797 L 133.81836 93.091797 L 154.18164 93.091797 L 154.18164 113.45508 L 174.54492 113.45508 L 194.9082 113.45508 L 194.9082 133.81836 L 215.27344 133.81836 L 215.27344 113.45508 L 215.27344 93.091797 L 215.27344 72.726562 L 215.27344 52.363281 L 235.63672 52.363281 L 235.63672 32 z M 235.63672 52.363281 L 235.63672 72.726562 L 235.63672 93.091797 L 235.63672 113.45508 L 235.63672 133.81836 L 215.27344 133.81836 L 215.27344 154.18164 L 215.27344 174.54492 L 215.27344 194.9082 L 235.63672 194.9082 L 256 194.9082 L 276.36328 194.9082 L 296.72656 194.9082 L 296.72656 174.54492 L 296.72656 154.18164 L 296.72656 133.81836 L 276.36328 133.81836 L 276.36328 113.45508 L 276.36328 93.091797 L 276.36328 72.726562 L 276.36328 52.363281 L 256 52.363281 L 235.63672 52.363281 z M 194.9082 133.81836 L 174.54492 133.81836 L 154.18164 133.81836 L 154.18164 113.45508 L 133.81836 113.45508 L 113.45508 113.45508 L 113.45508 133.81836 L 113.45508 154.18164 L 133.81836 154.18164 L 133.81836 174.54492 L 133.81836 194.9082 L 154.18164 194.9082 L 174.54492 194.9082 L 194.9082 194.9082 L 194.9082 174.54492 L 194.9082 154.18164 L 194.9082 133.81836 z M 133.81836 215.27344 L 133.81836 235.63672 L 113.45508 235.63672 L 93.091797 235.63672 L 72.726562 235.63672 L 52.363281 235.63672 L 52.363281 256 L 52.363281 276.36328 L 72.726562 276.36328 L 93.091797 276.36328 L 113.45508 276.36328 L 133.81836 276.36328 L 133.81836 296.72656 L 154.18164 296.72656 L 174.54492 296.72656 L 194.9082 296.72656 L 194.9082 276.36328 L 194.9082 256 L 194.9082 235.63672 L 194.9082 215.27344 L 174.54492 215.27344 L 154.18164 215.27344 L 133.81836 215.27344 z M 133.81836 317.0918 L 133.81836 337.45508 L 133.81836 357.81836 L 113.45508 357.81836 L 113.45508 378.18164 L 113.45508 398.54492 L 133.81836 398.54492 L 154.18164 398.54492 L 154.18164 378.18164 L 174.54492 378.18164 L 194.9082 378.18164 L 194.9082 357.81836 L 194.9082 337.45508 L 194.9082 317.0918 L 174.54492 317.0918 L 154.18164 317.0918 L 133.81836 317.0918 z M 215.27344 378.18164 L 235.63672 378.18164 L 235.63672 398.54492 L 235.63672 418.9082 L 235.63672 439.27344 L 235.63672 459.63672 L 256 459.63672 L 276.36328 459.63672 L 276.36328 439.27344 L 276.36328 418.9082 L 276.36328 398.54492 L 276.36328 378.18164 L 296.72656 378.18164 L 296.72656 357.81836 L 296.72656 337.45508 L 296.72656 317.0918 L 276.36328 317.0918 L 256 317.0918 L 235.63672 317.0918 L 215.27344 317.0918 L 215.27344 337.45508 L 215.27344 357.81836 L 215.27344 378.18164 z M 317.0918 378.18164 L 337.45508 378.18164 L 357.81836 378.18164 L 357.81836 398.54492 L 378.18164 398.54492 L 398.54492 398.54492 L 398.54492 378.18164 L 398.54492 357.81836 L 378.18164 357.81836 L 378.18164 337.45508 L 378.18164 317.0918 L 357.81836 317.0918 L 337.45508 317.0918 L 317.0918 317.0918 L 317.0918 337.45508 L 317.0918 357.81836 L 317.0918 378.18164 z M 378.18164 296.72656 L 378.18164 276.36328 L 398.54492 276.36328 L 418.9082 276.36328 L 439.27344 276.36328 L 459.63672 276.36328 L 459.63672 256 L 459.63672 235.63672 L 439.27344 235.63672 L 418.9082 235.63672 L 398.54492 235.63672 L 378.18164 235.63672 L 378.18164 215.27344 L 357.81836 215.27344 L 337.45508 215.27344 L 317.0918 215.27344 L 317.0918 235.63672 L 317.0918 256 L 317.0918 276.36328 L 317.0918 296.72656 L 337.45508 296.72656 L 357.81836 296.72656 L 378.18164 296.72656 z M 378.18164 194.9082 L 378.18164 174.54492 L 378.18164 154.18164 L 398.54492 154.18164 L 398.54492 133.81836 L 398.54492 113.45508 L 378.18164 113.45508 L 357.81836 113.45508 L 357.81836 133.81836 L 337.45508 133.81836 L 317.0918 133.81836 L 317.0918 154.18164 L 317.0918 174.54492 L 317.0918 194.9082 L 337.45508 194.9082 L 357.81836 194.9082 L 378.18164 194.9082 z M 215.27344 215.27344 L 215.27344 235.63672 L 215.27344 256 L 215.27344 276.36328 L 215.27344 296.72656 L 235.63672 296.72656 L 256 296.72656 L 276.36328 296.72656 L 296.72656 296.72656 L 296.72656 276.36328 L 296.72656 256 L 296.72656 235.63672 L 296.72656 215.27344 L 276.36328 215.27344 L 256 215.27344 L 235.63672 215.27344 L 215.27344 215.27344 z M 235.63672 235.63672 L 256 235.63672 L 276.36328 235.63672 L 276.36328 256 L 276.36328 276.36328 L 256 276.36328 L 235.63672 276.36328 L 235.63672 256 L 235.63672 235.63672 z "
       transform="scale(0.26458333)"
       inkscape:export-filename="/home/gilvanjr/Downloads/path31.png"
       inkscape:export-xdpi="96"
       inkscape:export-ydpi="96" />
  </g>
</svg>
