<?xml version="1.0" encoding="UTF-8" standalone="no"?>
<svg
   xmlns:dc="http://purl.org/dc/elements/1.1/"
   xmlns:cc="http://creativecommons.org/ns#"
   xmlns:rdf="http://www.w3.org/1999/02/22-rdf-syntax-ns#"
   xmlns:svg="http://www.w3.org/2000/svg"
   xmlns="http://www.w3.org/2000/svg"
   xmlns:sodipodi="http://sodipodi.sourceforge.net/DTD/sodipodi-0.dtd"
   xmlns:inkscape="http://www.inkscape.org/namespaces/inkscape"
   width="250"
   height="50"
   viewBox="0 0 66.14583 13.229167"
   version="1.1"
   id="svg8"
   inkscape:version="1.0.2 (e86c870879, 2021-01-15)"
   sodipodi:docname="logo.svg">
  <defs
     id="defs2" />
  <sodipodi:namedview
     id="base"
     pagecolor="#ffffff"
     bordercolor="#666666"
     borderopacity="1.0"
     inkscape:pageopacity="0.0"
     inkscape:pageshadow="2"
     inkscape:zoom="2.8"
     inkscape:cx="160.69991"
     inkscape:cy="28.049853"
     inkscape:document-units="mm"
     inkscape:current-layer="layer1"
     inkscape:document-rotation="0"
     showgrid="false"
     units="px"
     inkscape:showpageshadow="false"
     inkscape:window-width="1366"
     inkscape:window-height="731"
     inkscape:window-x="0"
     inkscape:window-y="0"
     inkscape:window-maximized="1" />
  <metadata
     id="metadata5">
    <rdf:RDF>
      <cc:Work
         rdf:about="">
        <dc:format>image/svg+xml</dc:format>
        <dc:type
           rdf:resource="http://purl.org/dc/dcmitype/StillImage" />
        <dc:title />
      </cc:Work>
    </rdf:RDF>
  </metadata>
  <g
     inkscape:label="Layer 1"
     inkscape:groupmode="layer"
     id="layer1">
    <g
       id="g947"
       style="fill:#0784b5;fill-opacity:1;stroke-width:1">
      <path
         d="m 18.947964,6.5312901 q -0.782645,0 -1.236578,-0.4382809 Q 17.257452,5.6547283 17.257452,4.8877366 V 2.3050108 q 0,-0.766991 0.453934,-1.2052719 0.453933,-0.4382809 1.236578,-0.4382809 0.766991,0 1.220925,0.4461071 0.453933,0.4382809 0.453933,1.1974457 h -0.70438 q 0,-0.4852397 -0.258273,-0.7435116 -0.250445,-0.2660996 -0.712205,-0.2660996 -0.461761,0 -0.72786,0.2582726 -0.258272,0.2582727 -0.258272,0.7435124 v 2.590552 q 0,0.4852397 0.258272,0.7513385 0.266099,0.2660989 0.72786,0.2660989 0.46176,0 0.712205,-0.2660989 0.258273,-0.2660988 0.258273,-0.7513385 V 4.1833568 H 18.760129 V 3.541589 h 1.862693 v 1.3461476 q 0,0.7591648 -0.453933,1.2052726 -0.453934,0.4382809 -1.220925,0.4382809 z"
         style="font-size:10.5833px;line-height:1.25;font-family:'JetBrains Mono';-inkscape-font-specification:'JetBrains Mono';fill:#0784b5;fill-opacity:1;stroke-width:0.264583"
         id="path864"
         inkscape:export-xdpi="523"
         inkscape:export-ydpi="523" />
      <path
         d="M 22.086355,6.4530257 V 5.8112571 h 1.16614 V 1.3814909 h -1.16614 V 0.73972242 h 3.052312 V 1.3814909 h -1.16614 v 4.4297662 h 1.16614 v 0.6417686 z"
         style="font-size:10.5833px;line-height:1.25;font-family:'JetBrains Mono';-inkscape-font-specification:'JetBrains Mono';fill:#0784b5;fill-opacity:1;stroke-width:0.264583"
         id="path866"
         inkscape:export-xdpi="523"
         inkscape:export-ydpi="523" />
      <path
         d="M 26.860472,6.4530257 V 0.73972242 h 0.70438 V 5.8112571 h 2.582726 v 0.6417686 z"
         style="font-size:10.5833px;line-height:1.25;font-family:'JetBrains Mono';-inkscape-font-specification:'JetBrains Mono';fill:#0784b5;fill-opacity:1;stroke-width:0.264583"
         id="path868"
         inkscape:export-xdpi="523"
         inkscape:export-ydpi="523" />
      <path
         d="M 32.518977,6.4530257 31.047606,0.73972242 h 0.727859 l 0.970478,3.88191528 q 0.101744,0.4069753 0.172183,0.7591648 0.07044,0.3443633 0.101743,0.5243715 0.0313,-0.1800082 0.09392,-0.5243715 0.07044,-0.3521895 0.172181,-0.7591648 l 0.962653,-3.88191528 h 0.712206 L 33.48163,6.4530257 Z"
         style="font-size:10.5833px;line-height:1.25;font-family:'JetBrains Mono';-inkscape-font-specification:'JetBrains Mono';fill:#0784b5;fill-opacity:1;stroke-width:0.264583"
         id="path870"
         inkscape:export-xdpi="523"
         inkscape:export-ydpi="523" />
      <path
         d="M 40.752371,6.4530257 V 0.73972242 h 0.939173 l 1.745295,4.89152648 q -0.01566,-0.1956614 -0.03913,-0.4774127 -0.01566,-0.289579 -0.0313,-0.6026367 -0.0078,-0.3208839 -0.0078,-0.6026359 V 0.73972242 H 44.03951 V 6.4530257 h -0.939175 l -1.73747,-4.8915265 q 0.01565,0.1878344 0.0313,0.4774127 0.01566,0.2817521 0.02348,0.602636 0.01565,0.3130576 0.01565,0.6026359 v 3.2088419 z"
         style="font-size:10.5833px;line-height:1.25;font-family:'JetBrains Mono';-inkscape-font-specification:'JetBrains Mono';fill:#0784b5;fill-opacity:1;stroke-width:0.264583"
         id="path874"
         inkscape:export-xdpi="523"
         inkscape:export-ydpi="523" />
      <path
         d="M 35.74346,12.489445 37.230483,0.73972227 h 0.947 L 39.65668,12.489445 H 38.944474 L 38.568805,9.3669156 h -1.729643 l -0.37567,3.1225294 z m 1.236577,-4.345789 h 1.440065 L 37.981821,4.5221678 q -0.125223,-1.0301123 -0.19566,-1.7222194 -0.07044,-0.6921069 -0.08609,-0.9013488 -0.01566,0.2092419 -0.08609,0.9013488 -0.07044,0.6921071 -0.195661,1.7061229 z"
         style="font-size:10.5833px;line-height:1.25;font-family:'JetBrains Mono';-inkscape-font-specification:'JetBrains Mono';fill:#0784b5;fill-opacity:1;stroke-width:0.264583"
         id="path876"
         inkscape:export-xdpi="523"
         inkscape:export-ydpi="523" />
      <path
         d="M 40.768023,12.489443 V 6.7761407 h 1.768776 q 0.508718,0 0.892214,0.2113138 0.383496,0.2034876 0.59481,0.5713303 0.211314,0.3678427 0.211314,0.8609086 0,0.5791566 -0.305232,0.9939581 -0.297404,0.4148015 -0.813949,0.5713303 l 1.197445,2.5044612 h -0.829603 l -1.095702,-2.426197 h -0.915693 v 2.426197 z m 0.70438,-3.0601384 h 1.064396 q 0.438281,0 0.70438,-0.2739258 0.266099,-0.2817513 0.266099,-0.7356854 0,-0.4617595 -0.266099,-0.7356853 Q 42.97508,7.410083 42.536799,7.410083 h -1.064396 z"
         style="font-size:10.5833px;line-height:1.25;font-family:'JetBrains Mono';-inkscape-font-specification:'JetBrains Mono';fill:#0784b5;fill-opacity:1;stroke-width:0.264583"
         id="path878"
         inkscape:export-xdpi="523"
         inkscape:export-ydpi="523" />
      <path
         d="m 45.135165,12.489443 1.487024,-5.7133023 h 0.946999 l 1.479198,5.7133023 H 48.336179 L 47.96051,10.971114 h -1.729643 l -0.375669,1.518329 z m 1.236577,-2.113139 h 1.440065 l -0.43828,-1.7609492 q -0.125223,-0.5008921 -0.195661,-0.8374291 -0.07044,-0.3365371 -0.08609,-0.4382809 -0.01565,0.1017438 -0.08609,0.4382809 -0.07044,0.336537 -0.195661,0.8296022 z"
         style="font-size:10.5833px;line-height:1.25;font-family:'JetBrains Mono';-inkscape-font-specification:'JetBrains Mono';fill:#0784b5;fill-opacity:1;stroke-width:0.264583"
         id="path880"
         inkscape:export-xdpi="523"
         inkscape:export-ydpi="523" />
      <path
         d="m 51.787628,12.567708 q -0.798297,0 -1.220925,-0.438281 -0.422627,-0.446107 -0.422627,-1.205272 V 6.7761407 h 0.704379 v 4.1480143 q 0,0.469586 0.226967,0.743512 0.234794,0.273925 0.712206,0.273925 0.469587,0 0.70438,-0.273925 0.234793,-0.273926 0.234793,-0.743512 V 6.7761407 h 0.70438 v 4.1480143 q 0,0.766992 -0.422628,1.205272 -0.414801,0.438281 -1.220925,0.438281 z"
         style="font-size:10.5833px;line-height:1.25;font-family:'JetBrains Mono';-inkscape-font-specification:'JetBrains Mono';fill:#0784b5;fill-opacity:1;stroke-width:0.264583"
         id="path882"
         inkscape:export-xdpi="523"
         inkscape:export-ydpi="523" />
      <path
         d="m 56.248688,12.567708 q -0.821776,0 -1.291362,-0.461761 -0.469587,-0.461759 -0.469587,-1.260057 h 0.70438 q 0,0.524372 0.273925,0.81395 0.281752,0.281752 0.782644,0.281752 0.500892,0 0.774818,-0.281752 0.281752,-0.289578 0.281752,-0.81395 V 7.4179092 H 55.700837 V 6.7761407 h 2.308801 V 10.84589 q 0,0.798298 -0.477413,1.260057 -0.469587,0.461761 -1.283537,0.461761 z"
         style="font-size:10.5833px;line-height:1.25;font-family:'JetBrains Mono';-inkscape-font-specification:'JetBrains Mono';fill:#0784b5;fill-opacity:1;stroke-width:0.264583"
         id="path884"
         inkscape:export-xdpi="523"
         inkscape:export-ydpi="523" />
      <path
         d="m 61.179335,12.567708 q -0.766991,0 -1.213098,-0.438281 -0.446107,-0.43828 -0.446107,-1.205272 V 8.341429 q 0,-0.766991 0.446107,-1.2052719 0.446107,-0.4382809 1.213098,-0.4382809 0.766992,0 1.213099,0.4382809 0.446107,0.4304547 0.446107,1.1974457 v 2.5905522 q 0,0.766992 -0.446107,1.205272 -0.446107,0.438281 -1.213099,0.438281 z m 0,-0.633942 q 0.46176,0 0.70438,-0.258273 0.250446,-0.266099 0.250446,-0.751338 V 8.341429 q 0,-0.4852389 -0.250446,-0.7435116 -0.24262,-0.2660989 -0.70438,-0.2660989 -0.453933,0 -0.70438,0.2660989 -0.250446,0.2582727 -0.250446,0.7435116 v 2.582726 q 0,0.485239 0.250446,0.751338 0.250447,0.258273 0.70438,0.258273 z"
         style="font-size:10.5833px;line-height:1.25;font-family:'JetBrains Mono';-inkscape-font-specification:'JetBrains Mono';fill:#0784b5;fill-opacity:1;stroke-width:0.264583"
         id="path886"
         inkscape:export-xdpi="523"
         inkscape:export-ydpi="523" />
      <path
         id="rect16-3-6-2-29-1-1-31-4"
         style="display:inline;fill:#0784b5;fill-opacity:1;fill-rule:evenodd;stroke-width:2.64583"
         d="M 8.7192247,0.66145842 V 1.2026518 H 9.2604181 9.8016105 V 0.66145842 H 9.2604181 Z M 9.8016105,1.2026518 V 1.7438451 2.2850385 2.826231 3.3674244 H 10.342804 V 2.826231 2.2850385 1.7438451 1.2026518 Z M 10.342804,3.3674244 V 3.9086177 4.4498111 4.9910036 H 9.8016105 9.2604181 8.7192247 8.1780315 V 4.4498111 3.9086177 3.3674244 H 7.6368381 V 3.9086177 4.4498111 4.9910036 H 7.095645 6.5544519 6.0132588 V 5.532197 H 6.5544519 7.095645 7.6368381 V 6.0733903 6.6145837 7.1557766 7.6969697 H 7.095645 6.5544519 6.0132588 V 8.2381628 H 6.5544519 7.095645 7.6368381 V 8.7793561 9.3205492 9.8617424 H 8.1780315 V 9.3205492 8.7793561 8.2381628 h 0.5411932 0.5411934 0.5411924 0.5411935 v 0.5411933 0.5411931 0.5411932 h 0.541193 V 9.3205492 8.7793561 8.2381628 h 0.541194 0.541193 0.541193 V 7.6969697 H 11.966384 11.425191 10.883997 V 7.1557766 6.6145837 6.0733903 5.532197 h 0.541194 0.541193 0.541193 V 4.9910036 H 11.966384 11.425191 10.883997 V 4.4498111 3.9086177 3.3674244 Z m 0.541193,0 h 0.541194 0.541193 V 2.826231 H 11.425191 10.883997 Z M 11.966383,2.826231 h 0.541194 0.541193 V 2.2850385 h -0.541193 -0.541193 z m 1.082387,0 v 0.5411934 0.5411933 h 0.541194 V 3.3674244 2.826231 Z m 0,1.0823867 H 12.507577 V 4.4498111 4.9910036 H 13.04877 V 4.4498111 Z M 12.507577,5.532197 v 0.5411933 h 0.541193 0.541194 0.541191 0.541194 V 5.532197 H 14.131155 13.589962 13.04877 Z m 2.164772,0.5411933 v 0.5411934 0.5411929 h 0.541194 V 6.6145837 6.0733903 Z m 0,1.0823863 H 14.131156 13.589963 13.04877 12.507577 v 0.5411931 h 0.541193 0.541193 0.541193 0.541193 z M 12.507577,8.2381628 V 8.7793561 9.3205492 H 13.04877 V 8.7793561 8.2381628 Z m 0.541193,1.0823864 v 0.5411932 0.5411936 h 0.541194 V 9.8617424 9.3205492 Z m 0,1.0823868 h -0.541193 -0.541193 v 0.541193 h 0.541193 0.541193 z m -1.082387,0 V 9.8617424 h -0.541192 -0.541194 v 0.5411936 h 0.541194 z M 10.342804,9.8617424 H 9.8016105 v 0.5411936 0.541193 0.541193 0.541193 H 10.342804 V 11.485322 10.944129 10.402936 Z M 9.8016105,12.026515 H 9.2604181 8.7192247 v 0.541193 h 0.5411934 0.5411933 z m -1.0823858,0 V 11.485322 10.944129 10.402936 9.8617424 H 8.1780315 v 0.5411936 0.541193 0.541193 0.541193 z M 7.6368381,9.8617424 H 7.095645 6.5544519 V 10.402936 H 7.095645 7.6368381 Z M 6.5544519,10.402936 H 6.0132588 5.4720656 v 0.541193 h 0.5411932 0.5411931 z m -1.0823863,0 V 9.8617424 9.3205492 H 4.9308722 v 0.5411932 0.5411936 z m 0,-1.0823868 H 6.0132588 V 8.7793561 8.2381628 H 5.4720656 V 8.7793561 Z M 6.0132588,7.6969697 V 7.1557766 H 5.4720656 4.9308722 4.3896789 3.8484864 V 7.6969697 H 4.3896789 4.9308722 5.4720656 Z M 3.8484864,7.1557766 V 6.6145837 6.0733903 H 3.307293 v 0.5411934 0.5411929 z m 0,-1.0823863 H 4.3896789 4.9308722 5.4720656 6.0132588 V 5.532197 H 5.4720656 4.9308722 4.3896789 3.8484864 Z M 6.0132588,4.9910036 V 4.4498111 3.9086177 H 5.4720656 V 4.4498111 4.9910036 Z M 5.4720656,3.9086177 V 3.3674244 2.826231 H 4.9308722 v 0.5411934 0.5411933 z m 0,-1.0823867 H 6.0132588 6.5544519 V 2.2850385 H 6.0132588 5.4720656 Z m 1.0823863,0 V 3.3674244 H 7.095645 7.6368381 V 2.826231 H 7.095645 Z M 8.1780315,3.3674244 H 8.7192247 V 2.826231 2.2850385 1.7438451 1.2026518 H 8.1780315 V 1.7438451 2.2850385 2.826231 Z m 0,2.1647726 H 8.7192247 9.2604181 9.8016114 10.342804 V 6.0733903 6.6145837 7.1557766 7.6969697 H 9.8016105 9.2604181 8.7192247 8.1780315 V 7.1557766 6.6145837 6.0733903 Z M 8.7192247,6.0733903 V 6.6145837 7.1557766 H 9.2604181 9.8016105 V 6.6145837 6.0733903 H 9.2604181 Z"
         inkscape:export-xdpi="872.72998"
         inkscape:export-ydpi="872.72998" />
    </g>
  </g>
</svg>
