<?xml version="1.0" encoding="UTF-8" standalone="no"?>
<svg
   xmlns:dc="http://purl.org/dc/elements/1.1/"
   xmlns:cc="http://creativecommons.org/ns#"
   xmlns:rdf="http://www.w3.org/1999/02/22-rdf-syntax-ns#"
   xmlns:svg="http://www.w3.org/2000/svg"
   xmlns="http://www.w3.org/2000/svg"
   xmlns:sodipodi="http://sodipodi.sourceforge.net/DTD/sodipodi-0.dtd"
   xmlns:inkscape="http://www.inkscape.org/namespaces/inkscape"
   version="1.1"
   id="svg2"
   xml:space="preserve"
   width="32"
   height="32"
   viewBox="0 0 32 32"
   sodipodi:docname="github.svg"
   inkscape:version="1.0.2 (e86c870879, 2021-01-15)"><metadata
     id="metadata8"><rdf:RDF><cc:Work
         rdf:about=""><dc:format>image/svg+xml</dc:format><dc:type
           rdf:resource="http://purl.org/dc/dcmitype/StillImage" /><dc:title /></cc:Work></rdf:RDF></metadata><defs
     id="defs6" /><sodipodi:namedview
     pagecolor="#ffffff"
     bordercolor="#666666"
     borderopacity="1"
     objecttolerance="10"
     gridtolerance="10"
     guidetolerance="10"
     inkscape:pageopacity="0"
     inkscape:pageshadow="2"
     inkscape:window-width="1366"
     inkscape:window-height="731"
     id="namedview4"
     showgrid="false"
     inkscape:zoom="1.0458319"
     inkscape:cx="19.844696"
     inkscape:cy="87.593527"
     inkscape:window-x="0"
     inkscape:window-y="0"
     inkscape:window-maximized="1"
     inkscape:current-layer="g10"
     inkscape:document-rotation="0" /><g
     id="g10"
     inkscape:groupmode="layer"
     inkscape:label="ink_ext_XXXXXX"
     transform="matrix(1.3333333,0,0,-1.3333333,0,666.65333)"><path
       d="m 11.998871,499.69382 c -6.6256097,0 -11.9988917,-5.37254 -11.9988917,-12.00037 0,-5.30182 3.438042,-9.79919 8.206512,-11.38598 0.60039,-0.1105 0.81918,0.26004 0.81918,0.57828 0,0.2851 -0.0103,1.03945 -0.0162,2.04058 -3.33785,-0.72488 -4.04211,1.60889 -4.04211,1.60889 -0.54587,1.38642 -1.33264,1.75549 -1.33264,1.75549 -1.08953,0.74403 0.0825,0.7293 0.0825,0.7293 1.20446,-0.0847 1.83799,-1.23687 1.83799,-1.23687 1.07039,-1.83357 2.80893,-1.30391 3.49256,-0.99671 0.10903,0.77497 0.41917,1.3039 0.76172,1.60373 -2.66454,0.30277 -5.4661,1.33264 -5.4661,5.93093 0,1.30981 0.46779,2.38166 1.2354,3.21999 -0.12376,0.30351 -0.53556,1.52417 0.11787,3.17579 0,0 1.00702,0.32266 3.29954,-1.23024 0.95694,0.26668 1.9838597,0.39928 3.0041497,0.40443 1.01955,-0.005 2.04573,-0.13775 3.00414,-0.40443 2.29105,1.5529 3.2966,1.23024 3.2966,1.23024 0.6549,-1.65162 0.2431,-2.87228 0.12008,-3.17579 0.76908,-0.83833 1.23319,-1.91018 1.23319,-3.21999 0,-4.61008 -2.80598,-5.62448 -5.47862,-5.92136 0.43021,-0.37054 0.81402,-1.10279 0.81402,-2.22179 0,-1.60447 -0.0147,-2.8988 -0.0147,-3.29219 0,-0.32119 0.21659,-0.69468 0.82508,-0.57755 4.76478,1.59048 8.19988,6.0849 8.19988,11.38525 0,6.62783 -5.37328,12.00037 -12.00111,12.00037"
       style="fill:#0784b5;fill-opacity:1;fill-rule:evenodd;stroke:none;stroke-width:0.1"
       id="path106" /></g></svg>
