<?xml version="1.0" encoding="UTF-8" standalone="no"?>
<svg
   xmlns:dc="http://purl.org/dc/elements/1.1/"
   xmlns:cc="http://creativecommons.org/ns#"
   xmlns:rdf="http://www.w3.org/1999/02/22-rdf-syntax-ns#"
   xmlns:svg="http://www.w3.org/2000/svg"
   xmlns="http://www.w3.org/2000/svg"
   xmlns:sodipodi="http://sodipodi.sourceforge.net/DTD/sodipodi-0.dtd"
   xmlns:inkscape="http://www.inkscape.org/namespaces/inkscape"
   id="Bold"
   enable-background="new 0 0 24 24"
   height="32"
   viewBox="0 0 1.5 1.5"
   width="32"
   version="1.1"
   sodipodi:docname="linkedin.svg"
   inkscape:version="1.0.2 (e86c870879, 2021-01-15)">
  <metadata
     id="metadata13">
    <rdf:RDF>
      <cc:Work
         rdf:about="">
        <dc:format>image/svg+xml</dc:format>
        <dc:type
           rdf:resource="http://purl.org/dc/dcmitype/StillImage" />
        <dc:title></dc:title>
      </cc:Work>
    </rdf:RDF>
  </metadata>
  <defs
     id="defs11" />
  <sodipodi:namedview
     pagecolor="#ffffff"
     bordercolor="#666666"
     borderopacity="1"
     objecttolerance="10"
     gridtolerance="10"
     guidetolerance="10"
     inkscape:pageopacity="0"
     inkscape:pageshadow="2"
     inkscape:window-width="1366"
     inkscape:window-height="731"
     id="namedview9"
     showgrid="false"
     inkscape:zoom="0.48144531"
     inkscape:cx="279.56668"
     inkscape:cy="224.03276"
     inkscape:window-x="0"
     inkscape:window-y="0"
     inkscape:window-maximized="1"
     inkscape:current-layer="Bold"
     inkscape:document-rotation="0" />
  <g
     id="g835"
     transform="scale(0.0625)"
     style="stroke-width:16">
    <path
       d="M 23.994,24 V 23.999 H 24 v -8.802 c 0,-4.306 -0.927,-7.623 -5.961,-7.623 -2.42,0 -4.044,1.328 -4.707,2.587 h -0.07 V 7.976 H 8.489 v 16.023 h 4.97 v -7.934 c 0,-2.089 0.396,-4.109 2.983,-4.109 2.549,0 2.587,2.384 2.587,4.243 V 24 Z"
       id="path2"
       style="fill:#d9d9d9;fill-opacity:1;stroke-width:16" />
    <path
       d="M 0.396,7.977 H 5.372 V 24 H 0.396 Z"
       id="path4"
       style="fill:#d9d9d9;fill-opacity:1;stroke-width:16" />
    <path
       d="M 2.882,0 C 1.291,0 0,1.291 0,2.882 0,4.473 1.291,5.791 2.882,5.791 4.473,5.791 5.764,4.473 5.764,2.882 5.763,1.291 4.472,0 2.882,0 Z"
       id="path6"
       style="fill:#d9d9d9;fill-opacity:1;stroke-width:16" />
  </g>
</svg>
