<?xml version="1.0" encoding="UTF-8" standalone="no"?>
<svg
   xmlns:dc="http://purl.org/dc/elements/1.1/"
   xmlns:cc="http://creativecommons.org/ns#"
   xmlns:rdf="http://www.w3.org/1999/02/22-rdf-syntax-ns#"
   xmlns:svg="http://www.w3.org/2000/svg"
   xmlns="http://www.w3.org/2000/svg"
   xmlns:sodipodi="http://sodipodi.sourceforge.net/DTD/sodipodi-0.dtd"
   xmlns:inkscape="http://www.inkscape.org/namespaces/inkscape"
   id="Capa_1"
   enable-background="new 0 0 511.85 511.85"
   height="512"
   viewBox="0 0 511.85 511.85"
   width="512"
   version="1.1"
   sodipodi:docname="favicon.svg"
   inkscape:version="1.0.2 (e86c870879, 2021-01-15)">
  <metadata
     id="metadata14">
    <rdf:RDF>
      <cc:Work
         rdf:about="">
        <dc:format>image/svg+xml</dc:format>
        <dc:type
           rdf:resource="http://purl.org/dc/dcmitype/StillImage" />
        <dc:title></dc:title>
      </cc:Work>
    </rdf:RDF>
  </metadata>
  <defs
     id="defs12" />
  <sodipodi:namedview
     pagecolor="#ffffff"
     bordercolor="#666666"
     borderopacity="1"
     objecttolerance="10"
     gridtolerance="10"
     guidetolerance="10"
     inkscape:pageopacity="0"
     inkscape:pageshadow="2"
     inkscape:window-width="1366"
     inkscape:window-height="731"
     id="namedview10"
     showgrid="false"
     inkscape:zoom="0.68086649"
     inkscape:cx="239.43818"
     inkscape:cy="254.92456"
     inkscape:window-x="0"
     inkscape:window-y="0"
     inkscape:window-maximized="1"
     inkscape:current-layer="Capa_1" />
  <g
     id="XMLID_318_"
     style="fill:#0784b5;fill-opacity:1"
     transform="translate(0,-5e-4)">
    <path
       id="XMLID_1281_"
       d="M 240.85,0.276 H 0 v 249.17 H 240.85 Z M 122.176,198.059 h -30 v -28.87 h 30 z m 0,-77.254 v 18.391 h -30 V 90.809 h 29.413 c 6.132,0 11.121,-4.989 11.121,-11.121 0,-6.132 -4.989,-11.122 -11.121,-11.122 H 92.176 v -30 h 29.413 c 22.674,0 41.121,18.447 41.121,41.121 0,22.478 -18.13,40.802 -40.534,41.118 z"
       style="fill:#0784b5;fill-opacity:1" />
    <path
       id="XMLID_1284_"
       d="m 133.617,382.372 -15.654,-22.498 -15.656,22.498 -17.749,4.661 15.113,14.78 -2.803,26.389 21.095,-9.902 21.094,9.902 -2.802,-26.389 15.111,-14.779 z"
       style="fill:#0784b5;fill-opacity:1" />
    <path
       id="XMLID_1288_"
       d="M 0,279.445 V 511.574 H 240.85 V 279.445 Z m 117.963,171.996 -56.55,26.544 6.891,-64.887 -42.567,-41.631 58.26,-15.303 33.967,-48.813 33.967,48.813 58.259,15.303 -42.566,41.632 6.89,64.887 z"
       style="fill:#0784b5;fill-opacity:1" />
    <path
       id="XMLID_1294_"
       d="M 511.85,249.445 V 0.276 h -241 v 249.17 h 241 z M 393.888,31.503 l 33.968,48.813 58.259,15.304 -42.567,41.631 6.891,64.887 -56.55,-26.544 -56.549,26.544 6.89,-64.887 -42.566,-41.631 58.259,-15.304 z"
       style="fill:#0784b5;fill-opacity:1" />
    <path
       id="XMLID_1295_"
       d="m 372.794,152.354 21.094,-9.902 21.094,9.902 -2.802,-26.389 15.112,-14.779 -17.749,-4.662 -15.655,-22.498 -15.655,22.498 -17.749,4.662 15.112,14.779 z"
       style="fill:#0784b5;fill-opacity:1" />
    <path
       id="XMLID_1298_"
       d="m 270.85,511.575 h 241 v -232.13 h -241 z m 95.276,-143.286 h 29.413 c 6.132,0 11.121,-4.989 11.121,-11.122 0,-6.133 -4.989,-11.122 -11.121,-11.122 h -29.413 v -30 h 29.413 c 22.674,0 41.121,18.447 41.121,41.122 0,22.478 -18.13,40.802 -40.534,41.118 v 18.391 h -30 z m 30,78.38 v 28.87 h -30 v -28.87 z"
       style="fill:#0784b5;fill-opacity:1" />
  </g>
</svg>
