<?xml version="1.0" encoding="UTF-8" standalone="no"?>
<svg
   xmlns:dc="http://purl.org/dc/elements/1.1/"
   xmlns:cc="http://creativecommons.org/ns#"
   xmlns:rdf="http://www.w3.org/1999/02/22-rdf-syntax-ns#"
   xmlns:svg="http://www.w3.org/2000/svg"
   xmlns="http://www.w3.org/2000/svg"
   xmlns:sodipodi="http://sodipodi.sourceforge.net/DTD/sodipodi-0.dtd"
   xmlns:inkscape="http://www.inkscape.org/namespaces/inkscape"
   id="Layer_1"
   enable-background="new 0 0 499.859 499.859"
   height="512"
   viewBox="0 0 499.859 499.859"
   width="512"
   version="1.1"
   sodipodi:docname="mask-icon.svg"
   inkscape:version="1.0.2 (e86c870879, 2021-01-15)">
  <metadata
     id="metadata15">
    <rdf:RDF>
      <cc:Work
         rdf:about="">
        <dc:format>image/svg+xml</dc:format>
        <dc:type
           rdf:resource="http://purl.org/dc/dcmitype/StillImage" />
        <dc:title />
      </cc:Work>
    </rdf:RDF>
  </metadata>
  <defs
     id="defs13" />
  <sodipodi:namedview
     pagecolor="#ffffff"
     bordercolor="#666666"
     borderopacity="1"
     objecttolerance="10"
     gridtolerance="10"
     guidetolerance="10"
     inkscape:pageopacity="0"
     inkscape:pageshadow="2"
     inkscape:window-width="1366"
     inkscape:window-height="731"
     id="namedview11"
     showgrid="false"
     inkscape:zoom="0.68086649"
     inkscape:cx="204.59383"
     inkscape:cy="273.42218"
     inkscape:window-x="0"
     inkscape:window-y="0"
     inkscape:window-maximized="1"
     inkscape:current-layer="Layer_1"
     inkscape:document-rotation="0" />
  <g
     id="g8"
     style="fill:#0784b5;fill-opacity:1"
     transform="matrix(1.000002,0,0,1.000002,-2.6487545e-4,-2.4985357e-4)">
    <path
       d="m 469.223,270.371 c 9.237,-9.218 14.329,-21.48 14.335,-34.53 0.007,-13.05 -5.071,-25.318 -14.298,-34.546 -4.7,-4.7 -10.137,-8.235 -15.946,-10.611 l 20.045,-19.969 c 9.258,-9.214 14.365,-21.481 14.38,-34.543 0.015,-13.062 -5.062,-25.342 -14.298,-34.578 l -0.519,-0.519 c -7.127,-7.127 -15.937,-11.584 -25.169,-13.37 0.56,-2.968 0.857,-6.007 0.86,-9.094 0.015,-13.06 -5.063,-25.339 -14.298,-34.573 l -0.637,-0.637 c -9.221,-9.221 -21.48,-14.299 -34.52,-14.299 -8.804,0 -17.248,2.323 -24.645,6.665 -2.409,-6.522 -6.211,-12.503 -11.268,-17.559 l -0.42,-0.422 C 343.792,-1.244 312.821,-1.247 293.786,17.787 L 163.331,148.244 179.535,81.327 C 185.937,54.887 171.49,27.926 145.93,18.612 131.546,13.37 115.584,14.564 102.138,21.883 88.692,29.202 79.026,41.96 75.618,56.886 l -2.222,9.736 C 62.768,113.177 45.2,159.96 21.18,205.668 3.181,239.918 -3.674,279.973 1.878,318.455 c 5.744,39.816 23.855,75.938 52.376,104.458 35.01,35.011 81.542,54.286 131.049,54.284 h 0.126 c 49.552,-0.032 96.113,-19.373 131.105,-54.458 l 37.349,-37.448 z m -173.93,131.182 c -29.328,29.406 -68.353,45.616 -109.883,45.644 h -0.106 C 143.813,447.197 104.809,431.042 75.467,401.7 51.561,377.795 36.382,347.527 31.57,314.172 26.914,281.899 32.656,248.32 47.737,219.623 72.965,171.617 91.439,122.386 102.644,73.298 l 2.222,-9.735 c 1.514,-6.633 5.639,-12.077 11.615,-15.33 5.976,-3.253 12.789,-3.761 19.18,-1.433 11.194,4.079 17.522,15.887 14.718,27.467 l -28.77,118.803 c -3.413,12.246 12.364,25.887 25.185,14.137 L 315,39.001 c 7.337,-7.339 19.276,-7.337 26.601,-0.014 l 0.42,0.421 c 3.554,3.555 5.511,8.279 5.511,13.306 0,5.027 -1.958,9.752 -5.511,13.307 -27.379,27.378 -76.487,76.486 -103.362,103.361 -5.858,5.857 -5.858,15.355 0,21.213 5.858,5.858 15.356,5.858 21.213,0 16.605,-16.605 112.003,-112.002 125.982,-125.98 3.554,-3.555 8.279,-5.512 13.306,-5.512 5.027,0 9.752,1.957 13.307,5.512 l 0.637,0.637 c 3.56,3.56 5.517,8.293 5.512,13.327 -0.006,5.034 -1.974,9.763 -5.544,13.317 -37.611,37.461 -89.049,88.677 -126.281,125.783 -5.87,5.847 -5.888,15.344 -0.042,21.214 2.931,2.942 6.778,4.414 10.627,4.414 3.829,0 7.659,-1.457 10.585,-4.372 25.028,-24.931 93.218,-92.857 117.168,-116.678 7.337,-7.301 19.261,-7.287 26.581,0.031 l 0.518,0.519 c 3.561,3.561 5.518,8.294 5.512,13.329 -0.006,5.035 -1.975,9.764 -5.548,13.32 -36.483,36.339 -94.262,93.883 -130.424,129.934 -5.869,5.848 -5.887,15.345 -0.04,21.214 2.931,2.941 6.778,4.413 10.626,4.413 3.829,0 7.66,-1.458 10.586,-4.373 l 68.783,-68.524 9.78,-9.68 c 7.337,-7.262 19.245,-7.229 26.544,0.068 3.557,3.557 5.514,8.286 5.511,13.316 -0.002,5.03 -1.965,9.758 -5.518,13.303 L 332.675,364.072 Z"
       id="path2"
       style="fill:#0784b5;fill-opacity:1" />
    <path
       d="m 451.123,374.497 c 3.26,-7.615 -0.271,-16.433 -7.886,-19.692 -7.616,-3.262 -16.433,0.27 -19.693,7.886 -5.032,11.754 -12.214,22.345 -21.346,31.477 -11.157,11.156 -24.34,19.323 -39.184,24.274 -7.859,2.621 -12.105,11.116 -9.484,18.976 2.096,6.284 7.948,10.258 14.228,10.258 1.573,0 3.173,-0.249 4.748,-0.774 19.3,-6.438 36.428,-17.042 50.906,-31.521 11.845,-11.847 21.169,-25.602 27.711,-40.884 z"
       id="path4"
       style="fill:#0784b5;fill-opacity:1" />
    <path
       d="m 490.765,382.77 c -7.615,-3.264 -16.433,0.261 -19.697,7.876 -7.009,16.349 -17.003,31.079 -29.704,43.78 -14.772,14.772 -32.148,25.807 -51.644,32.796 -7.798,2.796 -11.854,11.384 -9.058,19.183 2.196,6.126 7.967,9.941 14.121,9.941 1.68,0 3.389,-0.284 5.062,-0.884 23.698,-8.496 44.804,-21.895 62.732,-39.823 15.412,-15.411 27.545,-33.301 36.064,-53.173 3.264,-7.614 -0.262,-16.432 -7.876,-19.696 z"
       id="path6"
       style="fill:#0784b5;fill-opacity:1" />
  </g>
</svg>
