<?xml version="1.0" encoding="UTF-8" standalone="no"?>
<svg
   xmlns:dc="http://purl.org/dc/elements/1.1/"
   xmlns:cc="http://creativecommons.org/ns#"
   xmlns:rdf="http://www.w3.org/1999/02/22-rdf-syntax-ns#"
   xmlns:svg="http://www.w3.org/2000/svg"
   xmlns="http://www.w3.org/2000/svg"
   xmlns:sodipodi="http://sodipodi.sourceforge.net/DTD/sodipodi-0.dtd"
   xmlns:inkscape="http://www.inkscape.org/namespaces/inkscape"
   height="512"
   viewBox="0 0 383.99999 383.99999"
   width="512"
   version="1.1"
   id="svg6"
   sodipodi:docname="favicon.svg"
   inkscape:version="1.0.2 (e86c870879, 2021-01-15)">
  <metadata
     id="metadata12">
    <rdf:RDF>
      <cc:Work
         rdf:about="">
        <dc:format>image/svg+xml</dc:format>
        <dc:type
           rdf:resource="http://purl.org/dc/dcmitype/StillImage" />
        <dc:title />
      </cc:Work>
    </rdf:RDF>
  </metadata>
  <defs
     id="defs10" />
  <sodipodi:namedview
     pagecolor="#ffffff"
     bordercolor="#666666"
     borderopacity="1"
     objecttolerance="10"
     gridtolerance="10"
     guidetolerance="10"
     inkscape:pageopacity="0"
     inkscape:pageshadow="2"
     inkscape:window-width="1366"
     inkscape:window-height="731"
     id="namedview8"
     showgrid="false"
     units="px"
     inkscape:showpageshadow="false"
     inkscape:zoom="0.18054199"
     inkscape:cx="124.27407"
     inkscape:cy="424.39951"
     inkscape:window-x="0"
     inkscape:window-y="0"
     inkscape:window-maximized="1"
     inkscape:current-layer="svg6"
     inkscape:document-rotation="0" />
  <g
     id="g839"
     style="fill:#0080ff;fill-opacity:1;stroke-width:1.52669"
     transform="matrix(0.74704913,0,0,0.75011921,0.65717534,-0.03052243)">
    <path
       d="m 62.013098,228.46359 c 1.176606,-8.20958 2.803156,-16.24199 4.66544,-23.19212 C 94.47631,101.52877 202.98583,38.880766 306.72853,66.678538 355.11915,79.644766 395.1954,111.29493 420.36704,150.65085 l -21.26689,12.52404 c -4.7746,2.75661 -7.69855,7.8734 -7.64789,13.47989 0.42005,5.39004 3.46618,10.24625 8.37029,12.80182 2.75994,1.36635 90.30214,57.91566 84.52954,55.05458 7.06882,4.66426 20.7649,-0.53853 21.6808,-12.51423 0.19391,-3.07813 7.50091,-115.19877 7.09339,-108.77278 0.23886,-5.52487 -2.36583,-10.88154 -7.19209,-13.72765 -4.53573,-2.76825 -10.43275,-2.79544 -15.20734,-0.0388 L 472.8019,119.56107 C 439.99194,66.980724 386.58607,25.95973 322.25768,8.7229885 186.35267,-27.692649 45.138626,53.837315 8.7229885,189.74232 l -0.1546848,0.5773 c -2.1888409,8.16886 -3.5067219,14.58143 -4.3669049,19.52732 -1.1373848,6.55395 2.174754,13.05861 8.1372222,16.01101 l 28.171997,13.92612 c 9.169783,4.53568 20.05869,-1.25348 21.50248,-11.32048 z m 0,0"
       id="path2"
       style="fill:#0080ff;fill-opacity:1;stroke-width:1.52669" />
    <path
       d="m 499.75423,286.14267 -28.2234,-14.08144 c -9.17099,-4.57644 -20.12229,1.20409 -21.55557,11.32243 -1.23184,8.73264 -2.97451,17.07767 -4.6538,23.34487 C 417.5247,410.46746 309.01417,473.11923 205.27147,445.32146 156.88085,432.35523 116.8046,400.70507 91.710811,361.05861 l 21.189039,-12.2335 c 4.7746,-2.75661 7.69855,-7.8734 7.64789,-13.47989 -0.41904,-5.39381 -3.46618,-10.24625 -8.37029,-12.80182 -2.75893,-1.37013 -90.302141,-57.91566 -84.52954,-55.05458 -4.695199,-2.18821 -10.011158,-2.0597 -14.126837,0.56208 -4.3331477,2.25615 -7.1792548,7.08242 -7.5539641,11.95215 -0.1929011,3.07436 -7.2373064,114.23008 -6.82978495,107.80409 -0.24364585,5.52764 2.36104235,10.8843 7.18831565,13.72664 5.6419294,3.13745 11.1817524,2.65644 15.2073454,0.0388 L 39.171169,391.39239 C 71.976344,443.9755 125.1234,485.96242 189.74232,503.27701 325.64733,539.69265 466.86137,458.16268 503.27701,322.25768 l 0.23355,-0.8716 c 1.72074,-6.4219 3.1762,-12.78951 4.31971,-19.20027 1.1648,-6.55064 -2.12341,-13.06912 -8.07604,-16.04314 z m 0,0"
       id="path4"
       style="fill:#0080ff;fill-opacity:1;stroke-width:1.52669" />
  </g>
</svg>
